<?xml version="1.0" encoding="utf-8"?>
<!-- Generator: Adobe Illustrator 24.1.0, SVG Export Plug-In . SVG Version: 6.00 Build 0)  -->
<svg version="1.1" id="MOVE_logo" xmlns="http://www.w3.org/2000/svg" xmlns:xlink="http://www.w3.org/1999/xlink" x="0px" y="0px"
	 viewBox="0 0 262.88 60.28" style="enable-background:new 0 0 262.88 60.28;" xml:space="preserve">
<style type="text/css">
	.st0{fill-rule:evenodd;clip-rule:evenodd;fill:#C1C8D3;}
	.st1{fill:#FFFFFF;}
	.st2{fill:#C1C8D3;}
</style>
<g>
	<polygon class="st0" points="201.13,36.33 206.71,36.33 209.41,23.18 203.83,23.18 	"/>
	<path class="st0" d="M137.98,12.25l-8.16,35.04h123.32l7.14-35.04H137.98z M154.09,41.95h-5.39l0.04-3.45h-5.74l-1.43,3.45h-5.34
		l0.01-0.06l11.14-24.31h5.6l1.13,24.31L154.09,41.95z M162.41,41.95h-5.25l3.81-18.51h-5.3l1.21-5.87h15.85l-1.21,5.87h-5.3
		L162.41,41.95z M174.26,32.96h-5.67l0.78-3.52h5.67L174.26,32.96z M187.54,41.95l1.84-8.93h-5.58l-1.84,8.93h-5.25l5.01-24.38h5.25
		l-1.86,9.03h5.58l1.86-9.03h5.28l-5.01,24.38H187.54z M208.74,41.95h-11.95c-1.35,0-1.84-1.12-1.44-3.03l3.77-18.32
		c0.39-1.91,1.34-3.03,2.69-3.03h11.95c1.35,0,1.86,1.12,1.47,3.03l-3.77,18.32C211.06,40.83,210.08,41.95,208.74,41.95z
		 M226.64,41.95l2.24-10.88l-4.28,9.83h-4.23l-0.23-9.83l-2.24,10.88h-5.16l5.01-24.38h5.58l1.21,13.08h0.09l6.57-13.08h5.53
		l-5.01,24.38H226.64z M252.01,23.44h-9.32l-0.68,3.32h7.2l-1.14,5.55h-7.2l-0.77,3.77h9.44l-1.21,5.87h-14.69l5.01-24.38h14.57
		L252.01,23.44z"/>
	<polygon class="st0" points="148.53,33.04 148.55,25.35 145.42,33.04 	"/>
</g>
<g id="PROGRAM">
	<g>
		<path class="st1" d="M195.67,54.82h-4.07l-0.56,2.34h-2.63l1.96-8.15h6.73c0.68,0,0.96,0.37,0.81,1.01l-0.91,3.79
			C196.83,54.45,196.35,54.82,195.67,54.82z M195.04,50.88h-2.49l-0.5,2.1h2.49L195.04,50.88z"/>
		<path class="st1" d="M202.31,57.15l-1.53-3.04l0.33-1.38h2.12l0.45-1.86h-2.48l-1.51,6.27h-2.63l1.96-8.15h6.69
			c0.68,0,0.97,0.37,0.82,1.01l-0.77,3.22c-0.16,0.65-0.63,1-1.3,1h-0.56l1.36,2.83l-0.02,0.09H202.31z"/>
		<path class="st1" d="M212.71,57.15h-5.99c-0.68,0-0.95-0.37-0.79-1.01l1.47-6.12c0.15-0.64,0.6-1.01,1.28-1.01h5.99
			c0.68,0,0.96,0.37,0.81,1.01L214,56.14C213.85,56.78,213.38,57.15,212.71,57.15z M212.61,50.88h-2.8l-1.05,4.4h2.8L212.61,50.88z"
			/>
		<path class="st1" d="M221.72,57.15h-5.97c-0.68,0-0.95-0.37-0.79-1.01l1.47-6.12c0.15-0.64,0.63-1.01,1.3-1.01h5.95
			c0.69,0,0.98,0.37,0.83,1.01l-0.4,1.66h-2.65l0.19-0.8h-2.8l-1.05,4.4h2.8l0.27-1.11h-2.12l0.43-1.78h4.77l-0.9,3.76
			C222.88,56.78,222.41,57.15,221.72,57.15z"/>
		<path class="st1" d="M229.01,57.15l-1.53-3.04l0.33-1.38h2.12l0.45-1.86h-2.48l-1.51,6.27h-2.63l1.96-8.15h6.69
			c0.68,0,0.97,0.37,0.82,1.01l-0.77,3.22c-0.16,0.65-0.63,1-1.3,1h-0.56l1.36,2.83l-0.02,0.09H229.01z"/>
		<path class="st1" d="M238.11,57.15L238.05,56h-2.88l-0.64,1.15h-2.68l0.01-0.02l5.03-8.13h2.81l1.13,8.13l-0.01,0.02H238.11z
			 M237.66,51.61l-1.4,2.57h1.56L237.66,51.61z"/>
		<path class="st1" d="M248.23,57.15l0.87-3.64l-1.92,3.29h-2.12l-0.34-3.29l-0.87,3.64h-2.59l1.96-8.15h2.8l0.91,4.37h0.05l3-4.37
			h2.77l-1.96,8.15H248.23z"/>
	</g>
</g>
<g id="AT-HOME">
</g>
<g id="_x33_0_DAY">
	<g>
		<path class="st1" d="M145.5,10.64h-5.93c-0.68,0-0.95-0.37-0.79-1.01l0.4-1.69h2.61l-0.2,0.82h2.8l0.24-0.98l-2.38-0.98l0.16-0.68
			l2.85-0.98l0.18-0.77h-2.8l-0.2,0.82h-2.61l0.4-1.69c0.15-0.64,0.6-1.01,1.28-1.01h5.93c0.69,0,0.96,0.37,0.81,1.01l-0.42,1.75
			c-0.12,0.51-0.42,0.79-0.97,0.94l-0.96,0.27l0.85,0.19c0.46,0.12,0.66,0.36,0.54,0.87l-0.5,2.1
			C146.64,10.26,146.19,10.64,145.5,10.64z"/>
		<path class="st1" d="M154.49,10.64h-5.93c-0.68,0-0.95-0.37-0.79-1.01l1.47-6.12c0.15-0.64,0.63-1.01,1.3-1.01h5.91
			c0.69,0,0.96,0.37,0.81,1.01l-1.47,6.12C155.63,10.26,155.18,10.64,154.49,10.64z M154.43,4.36h-2.8l-1.05,4.4h2.8L154.43,4.36z"
			/>
		<path class="st1" d="M164.92,10.64h-5.27l1.96-8.15h5.27c1.76,0,2.6,0.89,2.21,2.5l-0.77,3.21
			C167.93,9.8,166.68,10.64,164.92,10.64z M166.38,5.25c0.15-0.62-0.19-0.83-0.86-0.83h-1.74l-1.03,4.29h1.74
			c0.68,0,1.11-0.21,1.26-0.83L166.38,5.25z"/>
		<path class="st1" d="M173.71,10.64l-0.06-1.15h-2.88l-0.64,1.15h-2.68l0.01-0.02l5.03-8.13h2.81l1.13,8.13l-0.01,0.02H173.71z
			 M173.26,5.09l-1.4,2.57h1.56L173.26,5.09z"/>
		<path class="st1" d="M181.28,7.83l-0.67,2.81h-2.65l0.68-2.82l-1.82-5.27l0.02-0.06h2.8l0.89,3.06l2.35-3.06h2.79l-0.02,0.06
			L181.28,7.83z"/>
	</g>
	<polygon class="st1" points="126.7,22.31 125.67,26.68 130.24,26.73 131.3,22.36 	"/>
	<polygon class="st1" points="124.71,33.41 123.68,37.78 128.25,37.82 129.31,33.46 	"/>
</g>
<g id="E">
	<polygon class="st1" points="123.83,20.77 125.86,12.36 105.08,12.36 98.81,22.55 92.86,47.31 117.64,47.31 119.67,38.89 
		103.75,38.89 105.04,33.49 117.2,33.49 119.12,25.53 106.96,25.53 108.1,20.77 	"/>
</g>
<g id="O">
	<path class="st1" d="M69.44,12.32H50.42c-2.28,0-3.88,1.6-4.54,4.35l-6.32,26.26c-0.66,2.75,0.17,4.35,2.44,4.35h20.16
		c2.27,0,3.91-1.6,4.58-4.35l5.14-21.37L69.44,12.32z M58.73,39.22h-9.41l4.54-18.85h9.41L58.73,39.22z"/>
</g>
<g id="M">
	<g>
		<path class="st1" d="M27.17,47.28l3.75-15.6l-7.19,14.09H16.6l-0.41-14.09l-3.75,15.6H3.72l8.41-34.96h9.41l2.07,18.76h0.16
			l11.06-18.76h9.33l-8.41,34.96H27.17z"/>
	</g>
</g>
<g id="Layer_14">
	<polygon class="st2" points="80.39,49.85 103.26,12.32 93.9,12.32 89.18,19.73 91.11,19.73 83.68,32.74 81.2,19.73 83.21,19.73 
		81.43,12.32 71.1,12.32 	"/>
</g>
</svg>
