<?xml version="1.0" standalone="no"?>
<!DOCTYPE svg PUBLIC "-//W3C//DTD SVG 20010904//EN"
 "http://www.w3.org/TR/2001/REC-SVG-20010904/DTD/svg10.dtd">
<svg version="1.0" xmlns="http://www.w3.org/2000/svg"
 width="399.000000pt" height="399.000000pt" viewBox="0 0 399.000000 399.000000"
 preserveAspectRatio="xMidYMid meet">
<metadata>
Created by potrace 1.11, written by Peter Selinger 2001-2013
</metadata>
<g transform="translate(0.000000,399.000000) scale(0.100000,-0.100000)"
fill="#000000" stroke="none">
<path d="M18 3688 c21 -35 457 -791 486 -843 9 -16 29 -51 44 -76 15 -25 114
-196 220 -380 107 -184 198 -341 202 -349 5 -8 53 -91 106 -183 l97 -168 57
98 c31 54 137 238 235 408 239 415 464 805 690 1195 60 102 119 205 133 230
14 25 31 54 38 65 8 11 14 23 14 27 0 5 -138 8 -307 8 l-308 0 -85 -147 c-47
-81 -99 -173 -117 -205 l-32 -57 60 2 c33 2 65 0 71 -4 6 -4 -26 -73 -82 -175
-127 -231 -158 -289 -196 -359 -17 -33 -46 -85 -63 -115 -17 -30 -47 -86 -66
-123 -20 -37 -40 -65 -45 -62 -5 3 -30 45 -56 93 -26 48 -55 101 -64 117 -10
17 -36 66 -60 110 -23 44 -46 85 -50 90 -4 6 -33 60 -65 120 -32 61 -61 115
-65 120 -23 32 -99 185 -93 186 4 0 36 1 71 1 42 1 62 4 58 12 -2 6 -54 97
-114 201 l-110 190 -312 3 -312 2 20 -32z"/>
<path d="M2361 3502 c-69 -119 -179 -311 -246 -427 -67 -115 -127 -219 -133
-231 -9 -17 -2 -35 45 -115 30 -52 65 -112 77 -134 13 -22 65 -112 116 -200
51 -88 105 -182 120 -210 16 -27 53 -93 84 -144 31 -52 56 -98 56 -101 0 -5
-76 -140 -101 -180 -5 -8 -94 -162 -198 -343 l-189 -327 -60 102 c-33 57 -70
121 -82 143 -12 22 -47 82 -77 133 -30 51 -53 99 -50 106 3 7 59 106 126 221
67 115 121 216 121 223 0 8 -8 26 -19 40 -10 15 -30 47 -44 72 -13 25 -57 101
-95 169 l-71 123 -35 -55 c-20 -31 -36 -58 -36 -60 0 -4 -55 -100 -265 -462
-54 -93 -113 -195 -130 -225 l-31 -55 159 -275 c87 -151 172 -300 189 -330 17
-30 34 -59 38 -65 4 -5 17 -26 27 -45 11 -19 71 -123 133 -230 62 -107 131
-228 154 -267 22 -40 44 -73 48 -73 5 0 67 100 113 185 17 29 73 127 259 450
93 160 238 412 324 560 85 149 179 311 209 360 29 50 53 97 53 104 0 7 -23 51
-51 99 -29 48 -61 103 -72 122 -24 43 -239 416 -266 462 -11 18 -32 56 -47 83
-14 28 -35 63 -46 78 -26 36 -21 52 50 173 32 54 89 151 125 214 37 63 71 121
76 129 8 12 55 15 276 14 146 0 268 -3 271 -6 3 -2 -17 -42 -44 -88 -27 -46
-60 -102 -72 -124 -59 -104 -92 -161 -100 -175 -6 -8 -30 -50 -54 -93 l-44
-79 114 -196 c62 -108 117 -198 121 -199 5 -2 13 6 18 17 6 10 34 61 64 112
30 51 62 107 71 123 10 17 67 116 127 220 316 547 485 841 499 866 l15 29
-748 0 -748 -1 -124 -217z"/>
</g>
</svg>
