<!-- Generator: Adobe Illustrator 21.0.2, SVG Export Plug-In  -->
<svg version="1.1"
	 xmlns="http://www.w3.org/2000/svg" xmlns:xlink="http://www.w3.org/1999/xlink" xmlns:a="http://ns.adobe.com/AdobeSVGViewerExtensions/3.0/"
	 x="0px" y="0px" width="304.2px" height="62.3px" viewBox="0 0 304.2 62.3" style="enable-background:new 0 0 304.2 62.3;"
	 xml:space="preserve">
<style type="text/css">
	.st0{fill:#4E4E4E;}
	.st1{fill:#233962;}
</style>
<defs>
</defs>
<g>
	<path class="st0" d="M99.1,33.8c1.4,2.7,1.6,5.3,0.3,8L96,49.3c-1.9,4.3-5.1,6.4-9.5,6.4H65.7H53.8L59.6,43l5.1-11.2l8.8,6.6
		L71.4,43H82c0.3-0.6,0.1-1.4-0.5-2.5l-9.1-16.8c-1.4-2.7-1.6-5.3-0.3-8l3.4-7.5C77.4,4,80.6,1.8,85,1.8h20.9h11.9L112,14.5
		l-5.1,11.2L98,19.1l2.1-4.6H89.5c-0.3,0.6-0.1,1.4,0.5,2.5L99.1,33.8L99.1,33.8z M140.2,22.3l9.4-20.6h16.8l-24.7,53.9H125
		l9.4-20.6H125l-9.4,20.6H98.8l24.7-53.9h16.8l-9.4,20.6L140.2,22.3L140.2,22.3z M183.1,14.5l-5.3,11.6h6.6c1.9,0,3.3-1,4.2-3
		l2.6-5.6c0.9-2,0.4-3-1.4-3H183.1L183.1,14.5z M173.4,38.8H172l-7.7,16.8h-16.8l24.7-53.9h36.5c4.4,0,5.6,2.1,3.6,6.4l-11.1,24.3
		c-1.9,4.2-5.1,6.4-9.5,6.4h-1.1l2.4,16.8h-17.1L173.4,38.8L173.4,38.8z M222.3,35.1l-3.6,7.9h22.5l-5.8,12.7h-39.3l24.7-53.9H260
		l-5.8,12.7h-22.5l-3.6,7.9h18.7L241,35.1H222.3L222.3,35.1z M276.7,14.5l-13,28.4h5.1c1.9,0,4.8-1.1,7-5.8l7.7-16.8
		c2.1-4.6,0.2-5.9-1.6-5.9L276.7,14.5L276.7,14.5z M241,55.7l24.7-53.9h30.2c4.4,0,11.5,3.1,6.7,13.4l-12.7,27.7
		c-3.3,7.1-14.4,12.8-18.7,12.8H241L241,55.7z"/>
	<polygon class="st1" points="0,0 23.1,0 30.4,12.5 25.8,12.5 37.3,33.8 47.7,12.5 43.1,12.5 50.4,0 71.1,0 37.8,62.3 	"/>
</g>
</svg>