<!-- Generator: Adobe Illustrator 21.1.0, SVG Export Plug-In  -->
<svg version="1.1"
	 xmlns="http://www.w3.org/2000/svg" xmlns:xlink="http://www.w3.org/1999/xlink" xmlns:a="http://ns.adobe.com/AdobeSVGViewerExtensions/3.0/"
	 x="0px" y="0px" width="398px" height="344.7px" viewBox="0 0 398 344.7" style="enable-background:new 0 0 398 344.7;"
	 xml:space="preserve">
<style type="text/css">
	.st0{fill-rule:evenodd;clip-rule:evenodd;fill:#FFFFFF;}
</style>
<defs>
</defs>
<g>
	<polygon class="st0" points="199,344.7 124.4,215.5 124.4,215.5 173.7,130 197.1,170.6 171.2,215.5 199,263.6 248.3,178.1 
		197.1,89.5 197.1,89.5 248.8,0 398,0 318.6,137.6 295.2,97 327.7,40.6 272.2,40.6 244,89.5 295.2,178.1 199,344.7 	"/>
	<polygon class="st0" points="117.1,202.8 0,0 61.5,0 84.9,40.6 70.3,40.6 117.1,126.3 163.9,40.6 149.2,40.6 172.6,0 234.1,0 
		117.1,202.8 	"/>
</g>
</svg>