<?xml version="1.0" encoding="iso-8859-1"?>
<!-- Generator: Adobe Illustrator 16.0.0, SVG Export Plug-In . SVG Version: 6.00 Build 0)  -->
<!DOCTYPE svg PUBLIC "-//W3C//DTD SVG 1.1//EN" "http://www.w3.org/Graphics/SVG/1.1/DTD/svg11.dtd">
<svg xmlns="http://www.w3.org/2000/svg" xmlns:xlink="http://www.w3.org/1999/xlink" version="1.1" id="Capa_1" x="0px" y="0px" width="512px" height="512px" viewBox="0 0 146.082 146.081" style="enable-background:new 0 0 146.082 146.081;" xml:space="preserve">
<g>
	<path d="M93.961,27.866h-0.625c0.29-0.999,0.491-2.028,0.491-3.128c0-0.817-0.098-1.603-0.262-2.369   c5.976-0.235,10.763-5.121,10.763-11.163C104.329,5.021,99.312,0,93.123,0H52.965c-6.187,0-11.208,5.021-11.208,11.207   c0,6.036,4.786,10.922,10.758,11.163c-0.161,0.767-0.262,1.552-0.262,2.369c0,1.095,0.208,2.129,0.498,3.128h-0.626   c-15.399,0-27.889,13.094-27.889,29.25v59.71c0,16.154,12.49,29.255,27.889,29.255h41.824c15.398,0,27.896-13.101,27.896-29.255   V57.123C121.851,40.96,109.358,27.866,93.961,27.866z M70.945,99.109H43.628c-4.646,0-8.404-3.766-8.404-8.405   c0-4.641,3.758-8.406,8.404-8.406h27.316c4.646,0,8.404,3.766,8.404,8.406C79.349,95.344,75.59,99.109,70.945,99.109z    M83.554,73.194H43.628c-4.646,0-8.404-3.763-8.404-8.404c0-4.642,3.758-8.405,8.404-8.405h39.926c4.646,0,8.405,3.763,8.405,8.405   C91.959,69.431,88.2,73.194,83.554,73.194z" fill="#666666"/>
</g>
<g>
</g>
<g>
</g>
<g>
</g>
<g>
</g>
<g>
</g>
<g>
</g>
<g>
</g>
<g>
</g>
<g>
</g>
<g>
</g>
<g>
</g>
<g>
</g>
<g>
</g>
<g>
</g>
<g>
</g>
</svg>
